<svg width="800" height="800" viewBox="0 0 800 800" fill="none" xmlns="http://www.w3.org/2000/svg">
<path d="M210 150C204.477 150 199.948 145.512 200.499 140.016C202.792 117.161 212.904 95.6749 229.289 79.2893C248.043 60.5357 273.478 50 300 50H650C676.522 50 701.957 60.5357 720.711 79.2893C739.464 98.043 750 123.478 750 150V500C750 526.522 739.464 551.957 720.711 570.711C704.325 587.096 682.839 597.208 659.984 599.501C654.488 600.052 650 595.523 650 590V560C650 554.477 654.521 550.101 659.934 549.003C669.494 547.065 678.355 542.355 685.355 535.355C694.732 525.979 700 513.261 700 500V150C700 136.739 694.732 124.021 685.355 114.645C675.979 105.268 663.261 100 650 100H300C286.739 100 274.021 105.268 264.645 114.645C257.645 121.645 252.935 130.506 250.997 140.066C249.899 145.479 245.523 150 240 150H210Z" fill="black"/>
<path d="M500 700C513.261 700 525.979 694.732 535.355 685.355C544.732 675.979 550 663.261 550 650V300C550 286.739 544.732 274.021 535.355 264.645C525.979 255.268 513.261 250 500 250H150C136.739 250 124.021 255.268 114.645 264.645C105.268 274.021 100 286.739 100 300V650C100 663.261 105.268 675.979 114.645 685.355C124.021 694.732 136.739 700 150 700H500ZM500 750H150C123.478 750 98.043 739.464 79.2893 720.711C60.5357 701.957 50 676.522 50 650V300C50 273.478 60.5357 248.043 79.2893 229.289C98.043 210.536 123.478 200 150 200H500C526.522 200 551.957 210.536 570.711 229.289C589.464 248.043 600 273.478 600 300V650C600 676.522 589.464 701.957 570.711 720.711C551.957 739.464 526.522 750 500 750Z" fill="black"/>
</svg>
