<svg width="50" height="50" viewBox="0 0 50 50" fill="none" xmlns="http://www.w3.org/2000/svg">
<path d="M41.6665 4.1665H8.33317C6.03198 4.1665 4.1665 6.03198 4.1665 8.33317V16.6665C4.1665 18.9677 6.03198 20.8332 8.33317 20.8332H41.6665C43.9677 20.8332 45.8332 18.9677 45.8332 16.6665V8.33317C45.8332 6.03198 43.9677 4.1665 41.6665 4.1665Z" stroke="#232121" stroke-width="4" stroke-linecap="round" stroke-linejoin="round"/>
<path d="M41.6665 29.1665H8.33317C6.03198 29.1665 4.1665 31.032 4.1665 33.3332V41.6665C4.1665 43.9677 6.03198 45.8332 8.33317 45.8332H41.6665C43.9677 45.8332 45.8332 43.9677 45.8332 41.6665V33.3332C45.8332 31.032 43.9677 29.1665 41.6665 29.1665Z" stroke="#232121" stroke-width="4" stroke-linecap="round" stroke-linejoin="round"/>
<path d="M12.5 12.5H12.521" stroke="#232121" stroke-width="4" stroke-linecap="round" stroke-linejoin="round"/>
<path d="M12.5 37.5H12.521" stroke="#232121" stroke-width="4" stroke-linecap="round" stroke-linejoin="round"/>
</svg>
